<svg xmlns="http://www.w3.org/2000/svg" width="512" height="512" style="" viewBox="0 0 512 512" data-bbox="135.45807516290915 80.2500991821289 242.1268149046682 351.8561880836651">
<rect data-fl-background="" x="0" y="0" width="512" height="512" fill="transparent">
</rect>
<path transform="matrix(1.5384562015533447, 0, 0, 1.5384562015533447, 178.76551818847656, 123.9701919555664)" data-type="circle" data-cx="50" data-cy="50" data-r="50" d="M50 50m-50 0a50 50 0 1 0 100 0a50 50 0 1 0 -100 0" fill="#a0fffb">
</path>
<g transform="matrix(0.5837029814720154, 0, 0, 0.5837029814720154, 110.07433319091797, 54.66594314575195)">
<path fill="rgba(102,206,145,1)" transform="matrix(1, 0, 0, 1, 0, 0)" data-type="circle" data-cx="252" data-cy="128.4" data-r="71.484" d="M252 128.4m-71.484 0a71.484 71.484 0 1 0 142.968 0a71.484 71.484 0 1 0 -142.968 0">
</path>
<path fill="rgba(152,247,191,1)" d="M252 56.91674A71.24024 71.24024 0 0 0 199.016 80.449a7.41342 7.41342 0 0 0 .9671 10.7725l.118.0932a7.44913 7.44913 0 0 0 10.1429-.8802A56.33617 56.33617 0 0 1 261.355 72.699a7.45 7.45 0 0 0 8.5767-5.6514q.02865-.12945.057-.259a7.42419 7.42419 0 0 0-6.038-8.8634A71.277 71.277 0 0 0 252 56.91674Z" transform="matrix(1, 0, 0, 1, 0, 0)">
</path>
<path fill="rgba(152,247,191,1)" d="M222.94369 63.09647a70.92266 70.92266 0 0 0-11.1732 6.2222 7.44575 7.44575 0 0 0-1.8079 10.63079l.0989.1302a7.45154 7.45154 0 0 0 10.1483 1.6603 56.04778 56.04778 0 0 1 8.7137-4.88179 7.4695 7.4695 0 0 0 4.2348-8.6671q-.01875-.0732-.0382-.1465A7.43725 7.43725 0 0 0 222.94369 63.09647Z" transform="matrix(1, 0, 0, 1, 0, 0)">
</path>
<path fill="rgba(152,247,191,1)" d="M188.70669 121.67016l.1509.0171a7.38527 7.38527 0 0 0 8.0378-5.682q.5724-2.53605 1.3698-4.9826a7.40551 7.40551 0 0 0-5.3574-9.43092l-.1482-.03648a7.41672 7.41672 0 0 0-8.8102 4.955q-.97815 3.03315-1.6892 6.1796A7.43036 7.43036 0 0 0 188.70669 121.67016Z" transform="matrix(1, 0, 0, 1, 0, 0)">
</path>
<path fill="rgba(72,169,175,1)" d="M319.18169 103.94806a3.97052 3.97052 0 0 0-7.7023 1.2779 66.14638 66.14638 0 0 1-122.3909 33.9824 3.9668 3.9668 0 0 0-7.2793 2.796q.02235.1152.0449.2307a71.49344 71.49344 0 1 0 137.3276-38.287Z" transform="matrix(1, 0, 0, 1, 0, 0)">
</path>
<path fill="rgba(59,102,150,1)" transform="matrix(1, 0, 0, 1, 0, 0)" data-type="circle" data-cx="278.873" data-cy="150.607" data-r="13.461" d="M278.873 150.607m-13.461 0a13.461 13.461 0 1 0 26.922 0a13.461 13.461 0 1 0 -26.922 0">
</path>
<path fill="rgba(72,169,175,1)" transform="matrix(0.2627279460430145, -0.9648702144622803, 0.9648702144622803, 0.2627279460430145, 111.1833724975586, 344.13201904296875)" data-type="circle" data-cx="280.775" data-cy="99.313" data-r="15.097" d="M280.775 99.313m-15.097 0a15.097 15.097 0 1 0 30.194 0a15.097 15.097 0 1 0 -30.194 0">
</path>
<path fill="rgba(72,169,175,1)" transform="matrix(1, 0, 0, 1, 0, 0)" data-type="circle" data-cx="264.412" data-cy="125.778" data-r="9.059" d="M264.412 125.778m-9.059 0a9.059 9.059 0 1 0 18.118 0a9.059 9.059 0 1 0 -18.118 0">
</path>
<path fill="rgba(59,102,150,1)" d="M291.03079 94.22816l-.0661.0247a3.40844 3.40844 0 0 0-2.2031 3.7281 8.205 8.205 0 0 1-.118 3.2657 8.08709 8.08709 0 0 1-10.5187 5.7134 3.50945 3.50945 0 0 0-3.8829 1.0288l-.0451.0541a3.45389 3.45389 0 0 0 1.4039 5.4491A15.0882 15.0882 0 0 0 295.67269 96.88 3.46255 3.46255 0 0 0 291.03079 94.22816zM266.84209 121.055l-.0058.05478a2.47557 2.47557 0 0 0 .5803 1.95152 4.04817 4.04817 0 0 1-4.5316 6.4717 2.46063 2.46063 0 0 0-3.0218.9876l-.0269.0435a2.469 2.469 0 0 0 1.0775 3.5729 9.05636 9.05636 0 0 0 10.2529-14.3883A2.47741 2.47741 0 0 0 266.84209 121.055z" transform="matrix(1, 0, 0, 1, 0, 0)">
</path>
<path fill="rgba(72,169,175,1)" transform="matrix(0.15972618758678436, -0.9871619343757629, 0.9871619343757629, 0.15972618758678436, 47.015750885009766, 396.3965148925781)" data-type="circle" data-cx="256.353" data-cy="170.581" data-r="9.059" d="M256.353 170.581m-9.059 0a9.059 9.059 0 1 0 18.118 0a9.059 9.059 0 1 0 -18.118 0">
</path>
<path fill="rgba(72,169,175,1)" transform="matrix(1, 0, 0, 1, 0, 0)" data-type="circle" data-cx="239.685" data-cy="131.804" data-r="6.78" d="M239.685 131.804m-6.78 0a6.78 6.78 0 1 0 13.56 0a6.78 6.78 0 1 0 -13.56 0">
</path>
<path fill="rgba(72,169,175,1)" d="M211.21109 145.05066a4.517 4.517 0 1 1-4.517-4.517A4.517 4.517 0 0 1 211.21109 145.05066Z" transform="matrix(1, 0, 0, 1, 0, 0)">
</path>
<path fill="rgba(152,247,191,1)" d="M240.68159 90.90766a4.517 4.517 0 1 1-4.517-4.517A4.51694 4.51694 0 0 1 240.68159 90.90766Z" transform="matrix(1, 0, 0, 1, 0, 0)">
</path>
<path fill="rgba(72,169,175,1)" d="M222.60959 160.95886a6.7796 6.7796 0 1 1-6.7796-6.7796A6.77954 6.77954 0 0 1 222.60959 160.95886Z" transform="matrix(1, 0, 0, 1, 0, 0)">
</path>
<path fill="rgba(152,247,191,1)" d="M228.38919 104.20746a6.7796 6.7796 0 1 1-6.7796-6.7796A6.77954 6.77954 0 0 1 228.38919 104.20746Z" transform="matrix(1, 0, 0, 1, 0, 0)">
</path>
<path fill="rgba(59,102,150,1)" transform="matrix(1, 0, 0, 1, 0, 0)" data-type="circle" data-cx="305.019" data-cy="128.75" data-r="9.059" d="M305.019 128.75m-9.059 0a9.059 9.059 0 1 0 18.118 0a9.059 9.059 0 1 0 -18.118 0">
</path>
<path fill="rgba(72,169,175,1)" d="M442.166 305.41236a34.37722 34.37722 0 0 0-32.333-34.2715v-15.1765a13.75076 13.75076 0 0 0-12.8479-13.8657 13.50026 13.50026 0 0 0-14.1521 13.4846v17.5a25.02852 25.02852 0 0 0 24.8698 24.9997 7.38738 7.38738 0 0 1 7.4632 7.322l.0009 2.749a7.68362 7.68362 0 0 1-1.8215 5.1007 7.29517 7.29517 0 0 1-5.5114 2.4956H372.833a10.333 10.333 0 0 1-10.333-10.333v-14.501a42.84411 42.84411 0 0 0-25.8888-39.351 41.13845 41.13845 0 0 0-13.6784-3.3406 8.82714 8.82714 0 0 1-8.2661-8.76292v-.26718a8.77788 8.77788 0 0 1 8.7779-8.77782h38.1343c20.7429 0 38.2009-16.37848 38.5815-37.11778a37.83588 37.83588 0 0 0-37.8323-38.54922l-17.9474.00052a13.75069 13.75069 0 0 0-13.8653 12.848A13.50031 13.50031 0 0 0 344 181.75026l17.9885-.00052a11.29357 11.29357 0 0 1 7.5671 2.75952 10.78066 10.78066 0 0 1 3.5982 8.6167 11.05544 11.05544 0 0 1-11.1581 10.29078h-75.6624V179.58346h-68.6666v23.83328H134.667a11.49994 11.49994 0 0 1-11.5-11.5V166.55766a10.7044 10.7044 0 0 1 9.48858-10.7597 10.51155 10.51155 0 0 1 11.51142 10.4523v6.9519a13.75076 13.75076 0 0 0 12.8479 13.8657 13.50026 13.50026 0 0 0 14.1521-13.4846v-6.62952c0-20.478-16.1244-37.70888-36.59672-38.19278A37.5408 37.5408 0 0 0 96.167 166.25026v25.66648a38.5 38.5 0 0 0 38.5 38.5h44.2221a8.77788 8.77788 0 0 1 8.7779 8.77782v.1109a8.77788 8.77788 0 0 1-8.7779 8.7778H176.5a39 39 0 0 0-39 39v11.29548a12.91367 12.91367 0 0 1-11.44612 12.98042 12.68 12.68 0 0 1-13.88688-12.6089v-25.167a31.5 31.5 0 0 0-31.5-31.5H71.71407a13.75077 13.75077 0 0 0-13.8657 12.8479A13.50033 13.50033 0 0 0 71.333 269.08326h9.334a4.5 4.5 0 0 1 4.5 4.5v24.4233c0 21.6605 17.05518 39.8865 38.70968 40.3989A39.71047 39.71047 0 0 0 164.5 298.75026v-11.667a12 12 0 0 1 12-12h32.1664a33.16661 33.16661 0 0 1 33.1666 33.1666v48.8334a14.33345 14.33345 0 0 1-14.3335 14.33348H201.571a14.60013 14.60013 0 0 1-14.7293-13.82948 14.34946 14.34946 0 0 1 14.1603-14.836c5.5985-.06352 10.8362-3.2029 12.7524-8.4636a13.56364 13.56364 0 0 0-12.5874-18.5374 41.37855 41.37855 0 0 0-41.3222 42.3296c.5339 22.5647 19.5262 40.33688 42.0972 40.33688h25.5575a41.33343 41.33343 0 0 0 41.3335-41.33348v-48.8334a33.16661 33.16661 0 0 1 33.1666-33.1666H319.667a15.833 15.833 0 0 1 15.833 15.833v14.50048a37.33353 37.33353 0 0 0 37.3335 37.33352h34.3458a35.183 35.183 0 0 0 24.5249-9.65552 34.11981 34.11981 0 0 0 10.4628-24.68528Z" transform="matrix(1, 0, 0, 1, 0, 0)">
</path>
<path fill="rgba(59,102,150,1)" d="M328.53 203.41674a27.40312 27.40312 0 0 1-25.41 17.17H273.97a27.37594 27.37594 0 0 1-26.59-20.85 27.03075 27.03075 0 0 1-.7899-6.53 27.38478 27.38478 0 0 1 16.1699-24.98c1.95-.53 3.87-1.15 5.74-1.85a66.0584 66.0584 0 0 0 42.98-61.15 3.96939 3.96939 0 0 1 7.6999-1.28c.1801.5.3601 1.01.5401 1.52.31.93.6101 1.88.89 2.83.14.49.28.98.41 1.47.12.42.22.83.33 1.25l.15.63c.0901.36.1799.73.26 1.1v.03c.12.5.22.99.3201 1.49.3099 1.52.5699 3.05.7699 4.61q.08985.6.15 1.2c.05.4.0901.8.13 1.21.0499.5.09 1.01.13 1.51a1.63523 1.63523 0 0 1 .02.22c.0301.39.0601.78.08 1.17.03.47.0499.94.0599 1.42.02.38.0301.76.0401 1.15.03 1.34.03 2.69-.0201 4.05-.02.56-.0399 1.11-.0799 1.66-.0299.68-.08 1.36-.14 2.04-.07.84-.1599 1.68-.26 2.51a70.91077 70.91077 0 0 1-11.0401 30.26c.02.01.0401.01.0601.02a71.81345 71.81345 0 0 1-25.6499 23.81v12.31Z" transform="matrix(1, 0, 0, 1, 0, 0)">
</path>
<path fill="rgba(102,206,145,1)" d="M105.167 166.25026a28.5405 28.5405 0 0 1 28.49848-28.5c.2293.0001.4608.0027.6921.0082a27.34379 27.34379 0 0 1 8.03552 1.40628 4.43511 4.43511 0 0 0 5.5529-2.82488l.0346-.1003a4.42078 4.42078 0 0 0-2.7467-5.629 36.5263 36.5263 0 0 0-10.66362-1.8496c-.30128-.0071-.6038-.0106-.9034-.0107a37.54047 37.54047 0 0 0-37.49988 37.5v16.0874a4.45493 4.45493 0 0 0 4.65188 4.45508l.0899-.00418a4.46486 4.46486 0 0 0 4.25822-4.4549Z" transform="matrix(1, 0, 0, 1, 0, 0)">
</path>
<path fill="rgba(152,247,191,1)" d="M105.167 166.25026a28.30886 28.30886 0 0 1 .25318-3.77752 4.42783 4.42783 0 0 0-3.567-4.89188l-.0887-.0174a4.43824 4.43824 0 0 0-5.2638 3.7108 37.23632 37.23632 0 0 0-.33368 4.976v2.2114a4.455 4.455 0 0 0 4.455 4.45508h.08988a4.45508 4.45508 0 0 0 4.45512-4.45508zM103.93757 150.47874l.0708.059a4.44646 4.44646 0 0 0 6.4648-.82888 28.74488 28.74488 0 0 1 3.0533-3.5995 28.35655 28.35655 0 0 1 13.3458-7.54462 4.48668 4.48668 0 0 0 3.4293-5.03528l-.014-.089a4.47746 4.47746 0 0 0-5.517-3.6175 37.59016 37.59016 0 0 0-21.6299 14.6833A4.44053 4.44053 0 0 0 103.93757 150.47874z" transform="matrix(1, 0, 0, 1, 0, 0)">
</path>
<path fill="rgba(41,64,114,1)" d="M196.667 239.30536v-.1108a17.77789 17.77789 0 0 0-17.7778-17.77782H134.667a29.2746 29.2746 0 0 1-7.72322-1.03318 4.49231 4.49231 0 0 0-5.6566 3.4767l-.0166.0903a4.44282 4.44282 0 0 0 3.1706 5.0869 38.41729 38.41729 0 0 0 10.22582 1.37928h44.2222a8.7778 8.7778 0 0 1 8.7778 8.77782v.1108a8.68151 8.68151 0 0 1-.2866 2.21638c-.0083.03152-.0116.06362-.0193.09532 3.1025-.1939 6.1608-.3435 9.2007-.4748A17.68559 17.68559 0 0 0 196.667 239.30536Z" transform="matrix(1, 0, 0, 1, 0, 0)">
</path>
<path fill="rgba(102,206,145,1)" d="M157.93189 258.89436q-.07425-.132-.1503-.2633a4.45516 4.45516 0 0 0-6.778-1.0511A38.89723 38.89723 0 0 0 137.5 287.08326v11.29548a13.28082 13.28082 0 0 1-.4988 3.60572 4.52771 4.52771 0 0 0 1.8126 5.0567l.0756.05a4.41047 4.41047 0 0 0 6.647-2.2972 21.85275 21.85275 0 0 0 .9636-6.41522V287.08326a29.93245 29.93245 0 0 1 10.4592-22.7377A4.38528 4.38528 0 0 0 157.93189 258.89436zM71.71407 251.08326h9.0938a22.35333 22.35333 0 0 1 22.35912 22.3591v5.9488a4.38883 4.38883 0 0 0 5.43688 4.2619l.2222-.0546a4.38894 4.38894 0 0 0 3.34092-4.2619v-5.8942a31.359 31.359 0 0 0-31.35912-31.3591h-9.0938a14.10706 14.10706 0 0 0-8.5437 2.8819 4.388 4.388 0 0 0 .9374 7.50958l.0829.03512a4.51129 4.51129 0 0 0 4.453-.4089A5.11936 5.11936 0 0 1 71.71407 251.08326z" transform="matrix(1, 0, 0, 1, 0, 0)">
</path>
<path fill="rgba(152,247,191,1)" d="M79.64117 242.08326H78.524a4.35536 4.35536 0 0 0-4.35122 4.4004q.00135.15075.0033.3012a4.35219 4.35219 0 0 0 4.3514 4.2984h1.1137q.19515 0 .3895.0036a4.35071 4.35071 0 0 0 4.4529-4.023l.0219-.3126a4.35324 4.35324 0 0 0-4.2429-4.6617Q79.9527 242.08326 79.64117 242.08326zM103.31317 251.60416a31.37534 31.37534 0 0 0-7.8771-5.8991 4.36947 4.36947 0 0 0-6.1985 2.45468q-.04725.14193-.0932.28392a4.42 4.42 0 0 0 2.1918 5.2745 21.56411 21.56411 0 0 1 1.9729 1.1837 22.37178 22.37178 0 0 1 4.8676 4.4708 4.315 4.315 0 0 0 5.569.9255q.1323-.079.2647-.1591a4.34312 4.34312 0 0 0 1.1719-6.426Q104.29535 252.61656 103.31317 251.60416z" transform="matrix(1, 0, 0, 1, 0, 0)">
</path>
<path fill="rgba(41,64,114,1)" d="M100.34577 322.54246l-.0782.0588a4.48609 4.48609 0 0 0-.0333 7.0693 39.73644 39.73644 0 0 0 4.3349 3.0524 4.4808 4.4808 0 0 0 6.6521-2.7117l.023-.08852a4.4655 4.4655 0 0 0-1.9996-4.93048 31.03139 31.03139 0 0 1-3.3719-2.3859A4.49161 4.49161 0 0 0 100.34577 322.54246zM159.68509 289.85366A4.46878 4.46878 0 0 0 155.5 294.306v4.4443a30.71422 30.71422 0 0 1-21.04682 29.11448 4.48792 4.48792 0 0 0-3.0881 4.81132l.0111.0896a4.44108 4.44108 0 0 0 5.78032 3.6794A39.72245 39.72245 0 0 0 164.5 298.75026v-4.4498a4.45455 4.45455 0 0 0-4.7248-4.45272zM208.66639 266.08326h-21.3922a4.44679 4.44679 0 0 0-4.4357 4.6683l.0048.1047a4.43426 4.43426 0 0 0 4.4361 4.227h21.387a33.0625 33.0625 0 0 1 24.482 10.8044 4.43872 4.43872 0 0 0 5.8649.6359l.073-.0522a4.46668 4.46668 0 0 0 .6599-6.6729A42.04345 42.04345 0 0 0 208.66639 266.08326z" transform="matrix(1, 0, 0, 1, 0, 0)">
</path>
<path fill="rgba(102,206,145,1)" d="M110.17857 208.33606a29.48036 29.48036 0 0 1-2.8267-5.2961 4.29361 4.29361 0 0 0-5.2323-2.4287q-.1.03-.2007.059a4.355 4.355 0 0 0-2.8792 5.8349 38.42056 38.42056 0 0 0 3.7044 6.9257 4.319 4.319 0 0 0 6.688.5883q.1383-.14415.2763-.2889A4.31886 4.31886 0 0 0 110.17857 208.33606Z" transform="matrix(1, 0, 0, 1, 0, 0)">
</path>
<path fill="rgba(41,64,114,1)" d="M425.44359 326.62906a26.01259 26.01259 0 0 1-18.2643 7.1212h-34.3458a28.21714 28.21714 0 0 1-19.6129-7.9139 4.47988 4.47988 0 0 0-6.8325.5911q-.05295.07785-.1057.156a4.46678 4.46678 0 0 0 .6432 5.7021 37.19139 37.19139 0 0 0 25.9079 10.4647h34.3458a35.18215 35.18215 0 0 0 24.4054-9.5404 34.20581 34.20581 0 0 0 8.5678-13.1777 4.44266 4.44266 0 0 0-3.9679-5.8731l-.0908-.00532a4.47951 4.47951 0 0 0-4.4597 2.96872A25.23635 25.23635 0 0 1 425.44359 326.62906zM114.167 171.32906v14.1001a4.5 4.5 0 0 0 5.47178 4.3938h0a4.5 4.5 0 0 0 3.52822-4.3938v-14.1001a4.5 4.5 0 0 0-4.76322-4.49232h0A4.4999 4.4999 0 0 0 114.167 171.32906zM391.76119 177.27446a4.48262 4.48262 0 0 0-2.2592 5.611 28.87156 28.87156 0 0 1 1.6599 10.24828q-.02535 1.37763-.184 2.72292a4.44386 4.44386 0 0 0 2.3752 4.5196l.0821.0412a4.46565 4.46565 0 0 0 6.4662-3.4212 35.98842 35.98842 0 0 0 .259-3.6974 37.88151 37.88151 0 0 0-2.2035-13.5067 4.468 4.468 0 0 0-6.1118-2.5572z" transform="matrix(1, 0, 0, 1, 0, 0)">
</path>
<path fill="rgba(102,206,145,1)" d="M371.02539 155.75126a38.03347 38.03347 0 0 0-8.6936-1.00152h-.0037l-17.9474.00052a13.75025 13.75025 0 0 0-13.8704 12.968 13.43393 13.43393 0 0 0 1.8879 7.4327 4.36538 4.36538 0 0 0 6.9059.8085l.2097-.2192a4.47708 4.47708 0 0 0 .5446-5.3157 4.5013 4.5013 0 0 1-.5529-2.4034 4.75571 4.75571 0 0 1 4.8755-4.2709l17.9507-.00052a28.90741 28.90741 0 0 1 6.6508.77222 4.42378 4.42378 0 0 0 5.2309-3.1383l.0246-.087A4.44107 4.44107 0 0 0 371.02539 155.75126Z" transform="matrix(1, 0, 0, 1, 0, 0)">
</path>
<path fill="rgba(41,64,114,1)" d="M389.97159 211.25026l-.1517-.1278a4.39545 4.39545 0 0 0-6.0721.482 29.91227 29.91227 0 0 1-22.1689 9.81228h-3.6405c.0206.16522.0411.33572.0616.5-.0205-.16428-.041-.33478-.0616-.5h-34.4938a17.76386 17.76386 0 0 0-17.7211 16.65422c3.0604.0454 6.109-.3137 9.1066-.5474a8.77752 8.77752 0 0 1 8.6145-7.10682h38.1343a38.96543 38.96543 0 0 0 28.7695-12.67518A4.5 4.5 0 0 0 389.97159 211.25026Z" transform="matrix(1, 0, 0, 1, 0, 0)">
</path>
<path fill="rgba(102,206,145,1)" d="M336.61119 251.56536a41.702 41.702 0 0 0-7.1075-2.354 4.45345 4.45345 0 0 0-5.2982 3.1816l-.0253.0929a4.453 4.453 0 0 0 3.2994 5.498 32.62849 32.62849 0 0 1 5.5683 1.846 33.73551 33.73551 0 0 1 12.6517 9.485 4.4736 4.4736 0 0 0 7.4524-.7703l.0471-.09182a4.42444 4.42444 0 0 0-.5178-4.826A42.95739 42.95739 0 0 0 336.61119 251.56536Z" transform="matrix(1, 0, 0, 1, 0, 0)">
</path>
<path fill="rgba(59,102,150,1)" d="M241.83009 342.74674v14.34a14.33 14.33 0 0 1-14.33 14.33h-11.3614a8.963 8.963 0 0 0-8.9499 7.92072q-.01155.1077-.0229.21528a8.99034 8.99034 0 0 0 8.9794 9.864H227.5a32.33011 32.33011 0 0 0 32.3301-32.33008V342.74674Z" transform="matrix(1, 0, 0, 1, 0, 0)">
</path>
<path fill="rgba(102,206,145,1)" d="M382.833 255.58326v17.5a24.9194 24.9194 0 0 0 7.8709 18.1857 4.47511 4.47511 0 0 0 6.9932-1.0877l.0433-.0791a4.43026 4.43026 0 0 0-.8248-5.3633 15.92515 15.92515 0 0 1-5.0826-11.6556v-17.5a4.47489 4.47489 0 0 1 .2731-1.5437 4.7005 4.7005 0 0 0-.2263-3.9537l-.0468-.0829a4.46526 4.46526 0 0 0-8.0157.5157A13.43374 13.43374 0 0 0 382.833 255.58326Z" transform="matrix(1, 0, 0, 1, 0, 0)">
</path>
<path fill="rgba(41,64,114,1)" d="M429.16849 291.78816a25.31855 25.31855 0 0 1 1.7462 3.1991 4.437 4.437 0 0 0 4.6656 2.6147q.09255-.0135.1852-.0268a4.42425 4.42425 0 0 0 3.379-6.2333 34.29848 34.29848 0 0 0-2.4684-4.5232 4.42148 4.42148 0 0 0-7.0523-.5328q-.061.07-.1226.1397A4.44428 4.44428 0 0 0 429.16849 291.78816Z" transform="matrix(1, 0, 0, 1, 0, 0)">
</path>
<path fill="rgba(102,206,145,1)" d="M168.84229 357.86686a32.33974 32.33974 0 0 1 .1066-3.499 4.46752 4.46752 0 0 0-3.3921-4.7399l-.0881-.0214a4.46713 4.46713 0 0 0-5.4895 3.9981 41.57806 41.57806 0 0 0-.1344 4.4752 40.18888 40.18888 0 0 0 .5888 5.971 4.45251 4.45251 0 0 0 6.0453 3.3844l.0848-.0347a4.49577 4.49577 0 0 0 2.7309-4.9636A30.68931 30.68931 0 0 1 168.84229 357.86686Z" transform="matrix(1, 0, 0, 1, 0, 0)">
</path>
<path fill="rgba(41,64,114,1)" d="M328.53 273.72674l-.04.06a4.49376 4.49376 0 0 1-4.79 1.83 15.362 15.362 0 0 0-4.0301-.53H302a33.1668 33.1668 0 0 0-33.1699 33.16v48.84a41.33121 41.33121 0 0 1-41.3301 41.33h-25.5601a42.49309 42.49309 0 0 1-25.9399-8.83 4.31108 4.31108 0 0 1-.74-6.08c.1-.12.19-.23.28-.35a4.35022 4.35022 0 0 1 6.07-.65 33.36556 33.36556 0 0 0 20.3299 6.91H227.5a32.31462 32.31462 0 0 0 27.8284-15.86358q.0732-.12363.1448-.2467a12.73377 12.73377 0 0 0-11.0817-19.05972h-2.5614v-11.5h18v-34.5A42.16759 42.16759 0 0 1 302 266.08674h17.6699a24.84247 24.84247 0 0 1 6.3651.82662A4.47422 4.47422 0 0 1 328.53 273.72674Z" transform="matrix(1, 0, 0, 1, 0, 0)">
</path>
<path fill="rgba(72,169,175,1)" d="M264.667 443.08326a13.49967 13.49967 0 0 1-13.5-13.5 29.53342 29.53342 0 0 1 29.5-29.5h.5a18.02062 18.02062 0 0 0 18-18v-21.333a18.02062 18.02062 0 0 0-18-18h-80a13.5 13.5 0 1 1 0-27h80a45.05075 45.05075 0 0 1 45 45v21.333a45.05075 45.05075 0 0 1-45 45h-.5a2.50264 2.50264 0 0 0-2.5 2.5A13.49974 13.49974 0 0 1 264.667 443.08326Z" transform="matrix(1, 0, 0, 1, 0, 0)">
</path>
<path fill="rgba(41,64,114,1)" d="M317.167 375.39746v6.6858a36 36 0 0 1-36 36h-.5a11.51789 11.51789 0 0 0-1.8314.1459 8.34126 8.34126 0 0 0-5.5182 12.7859l.0659.1022a2.6009 2.6009 0 0 0 4.7832-1.4178l.0005-.0959a2.513 2.513 0 0 1 2.5-2.5203h.5a45 45 0 0 0 45-45v-6.6487a4.47682 4.47682 0 0 0-5.1452-4.4267l-.09.0136A4.42563 4.42563 0 0 0 317.167 375.39746Z" transform="matrix(1, 0, 0, 1, 0, 0)">
</path>
<path fill="rgba(102,206,145,1)" d="M308.27419 334.35636l-.0202.0956a4.43736 4.43736 0 0 0 .8778 3.6953 36.1544 36.1544 0 0 1 2.4083 3.34248 4.4135 4.4135 0 0 0 4.6675 1.88982l.0754-.0164a4.47534 4.47534 0 0 0 2.816-6.7838 45.20094 45.20094 0 0 0-2.9984-4.14562A4.47579 4.47579 0 0 0 308.27419 334.35636zM281.167 324.75026a35.78647 35.78647 0 0 1 8.4867 1.0177 4.42346 4.42346 0 0 0 5.3824-3.4844l.0169-.0896a4.45254 4.45254 0 0 0-3.2865-5.1736 44.75568 44.75568 0 0 0-10.5995-1.2701h-71.5284a4.454 4.454 0 0 0-4.215 5.8846l.0305.09088a4.44049 4.44049 0 0 0 4.2153 3.02452z" transform="matrix(1, 0, 0, 1, 0, 0)">
</path>
<path fill="rgba(152,247,191,1)" d="M141.94349 269.02206a38.80926 38.80926 0 0 0-2.1474 4.8896 4.47736 4.47736 0 0 0 4.2001 6.00508h.0805a4.44006 4.44006 0 0 0 4.1832-2.91788 29.826 29.826 0 0 1 1.68-3.79912 4.45665 4.45665 0 0 0-.844-5.30368l-.0666-.0635A4.49071 4.49071 0 0 0 141.94349 269.02206zM354.18849 158.75586a4.18113 4.18113 0 0 0-4.1689-4.0057l-5.6389.0001a14.04283 14.04283 0 0 0-6.3499 1.5174 4.16409 4.16409 0 0 0-1.0207 6.6639q.24735.2451.4941.4913a4.21094 4.21094 0 0 0 4.7543.791 5.07548 5.07548 0 0 1 2.1225-.4636l5.6647-.0001a4.17537 4.17537 0 0 0 4.1701-4.33142Q354.20349 159.08724 354.18849 158.75586zM387.39069 259.836l-.0997-.0004a4.45262 4.45262 0 0 0-4.458 4.4575l.0138 4.81568a4.49322 4.49322 0 0 0 5.0271 4.44842h0a4.49321 4.49321 0 0 0 3.9591-4.4613v-4.8026A4.45726 4.45726 0 0 0 387.39069 259.836zM219.19389 319.06366q-.0297.11835-.0585.2364a4.44128 4.44128 0 0 0 4.3447 5.4502h5.3418a4.45531 4.45531 0 0 0 4.1193-6.1538l-.037-.08972a4.45778 4.45778 0 0 0-4.1193-2.75648h-5.283A4.42785 4.42785 0 0 0 219.19389 319.06366zM242.32149 320.20516v.0902a4.45488 4.45488 0 0 0 4.4549 4.4549h27.6768a4.46345 4.46345 0 0 0 4.4398-4.1262l.0073-.0902a4.44337 4.44337 0 0 0-4.4405-4.7836h-27.6834A4.45485 4.45485 0 0 0 242.32149 320.20516z" transform="matrix(1, 0, 0, 1, 0, 0)">
</path>
<path fill="rgba(102,206,145,1)" d="M170.55149 336.82a4.36261 4.36261 0 0 0 5.9427-.6067q.74115-.87435 1.5505-1.7037a32.2117 32.2117 0 0 1 12.6847-8.0323 4.3424 4.3424 0 0 0 2.8103-4.96352q-.029-.15057-.0591-.30088a4.33015 4.33015 0 0 0-5.6095-3.2602 41.4778 41.4778 0 0 0-18.1912 12.3944 4.39422 4.39422 0 0 0 .7989 6.4195Z" transform="matrix(1, 0, 0, 1, 0, 0)">
</path>
<path fill="rgba(41,64,114,1)" d="M231.91989 192.66674a55.41216 55.41216 0 0 1-51.48 55.28 8.777 8.777 0 0 0 7.23-8.64v-.11a8.77871 8.77871 0 0 0-8.7799-8.78H176.5v-27h41.1699v-10.75zM327.5 203.41674v27h-4.0601a8.77673 8.77673 0 0 0-8.77 8.78v.26a8.75626 8.75626 0 0 0 5.5801 8.15 55.4027 55.4027 0 0 1-48.1699-54.94h14.25v10.75z" transform="matrix(1, 0, 0, 1, 0, 0)">
</path>
<path fill="rgba(102,206,145,1)" transform="matrix(0.7974891662597656, -0.6033332347869873, 0.6033332347869873, 0.7974891662597656, -57.13833999633789, 215.42379760742188)" data-type="circle" data-cx="292.333" data-cy="192.827" data-r="20.248" d="M292.333 192.827m-20.248 0a20.248 20.248 0 1 0 40.496 0a20.248 20.248 0 1 0 -40.496 0">
</path>
<path fill="rgba(152,247,191,1)" d="M277.57969 185.97556a3.72265 3.72265 0 0 0 5.1682-.74982 12.181 12.181 0 0 1 10.5864-4.60328 3.75517 3.75517 0 0 0 4.1501-3.4023q.0198-.276.0411-.5523a3.74079 3.74079 0 0 0-3.4169-4.0152 20.27641 20.27641 0 0 0-17.7411 7.7259 3.71237 3.71237 0 0 0 .7608 5.2585Q277.35524 185.80446 277.57969 185.97556Z" transform="matrix(1, 0, 0, 1, 0, 0)">
</path>
<path fill="rgba(13,17,34,1)" d="M292.08689 207.117a8.1968 8.1968 0 0 1-5.7959-13.9927l4.7393-4.7392a8.19664 8.19664 0 0 1 11.5918 11.5918l-4.7393 4.7392A8.14131 8.14131 0 0 1 292.08689 207.117Z" transform="matrix(1, 0, 0, 1, 0, 0)">
</path>
<path fill="rgba(59,102,150,1)" d="M296.826 188.48446a5.67922 5.67922 0 0 1 4.0282 1.6685v.0001a5.69652 5.69652 0 0 1 0 8.0562l-4.739 4.739a5.69663 5.69663 0 1 1-8.0562-8.0563l4.739-4.739a5.67876 5.67876 0 0 1 4.028-1.6685Zm0-5a10.62709 10.62709 0 0 0-7.5637 3.133l-4.7389 4.739a10.69664 10.69664 0 0 0 15.1274 15.12728l4.739-4.73888a10.69675 10.69675 0 0 0-7.5638-18.2604Z" transform="matrix(1, 0, 0, 1, 0, 0)">
</path>
<path fill="rgba(102,206,145,1)" transform="matrix(0.10399039089679718, -0.9945783019065857, 0.9945783019065857, 0.10399039089679718, -2.125873327255249, 383.29425048828125)" data-type="circle" data-cx="211.667" data-cy="192.827" data-r="20.248" d="M211.667 192.827m-20.248 0a20.248 20.248 0 1 0 40.496 0a20.248 20.248 0 1 0 -40.496 0">
</path>
<path fill="rgba(152,247,191,1)" d="M209.47149 180.777a12.18736 12.18736 0 0 1 3.8143-.091 3.94973 3.94973 0 0 0 4.5033-3.7675l.0026-.0859a3.98468 3.98468 0 0 0-3.4548-4.082 20.26269 20.26269 0 0 0-17.7063 6.5233 3.97991 3.97991 0 0 0 .8322 6.0542l.0747.0465a3.89888 3.89888 0 0 0 4.9712-.65682A12.14662 12.14662 0 0 1 209.47149 180.777Z" transform="matrix(1, 0, 0, 1, 0, 0)">
</path>
<path fill="rgba(13,17,34,1)" d="M211.91309 207.117a8.14131 8.14131 0 0 1-5.7959-2.4009l-4.7393-4.7392a8.1965 8.1965 0 1 1 11.5918-11.5914l4.7393 4.73828a8.19706 8.19706 0 0 1-5.7959 13.99322Z" transform="matrix(1, 0, 0, 1, 0, 0)">
</path>
<path fill="rgba(59,102,150,1)" d="M207.174 188.48446a5.67876 5.67876 0 0 1 4.028 1.6685l4.739 4.739a5.69663 5.69663 0 1 1-8.0562 8.0563l-4.739-4.739a5.69652 5.69652 0 0 1 0-8.0562v-.0001a5.67922 5.67922 0 0 1 4.0282-1.6685Zm0-5a10.69659 10.69659 0 0 0-7.5638 18.26028l4.739 4.73912a10.69672 10.69672 0 0 0 15.1274-15.1275l-4.7391-4.7389a10.62629 10.62629 0 0 0-7.5635-3.133Z" transform="matrix(1, 0, 0, 1, 0, 0)">
</path>
<path fill="rgba(41,64,114,1)" d="M268.5 166.37674c-1.87.7-3.79 1.32-5.74 1.85A26.55477 26.55477 0 0 1 268.5 166.37674Z" transform="matrix(1, 0, 0, 1, 0, 0)">
</path>
<path fill="rgba(59,102,150,1)" d="M345.09529 212.50016v-.0001a9.08325 9.08325 0 0 1 9.0832-9.08332h-26.2876a9.08325 9.08325 0 0 0-9.0832 9.08332v.0001a9.08324 9.08324 0 0 0 9.0832 9.0833h26.2876A9.08324 9.08324 0 0 1 345.09529 212.50016Z" transform="matrix(1, 0, 0, 1, 0, 0)">
</path>
<path fill="rgba(59,102,150,1)" d="M158.90469 212.50016v-.0001a9.08325 9.08325 0 0 0-9.0832-9.08332h26.2876a9.08325 9.08325 0 0 1 9.0832 9.08332v.0001a9.08324 9.08324 0 0 1-9.0832 9.0833h-26.2876A9.08324 9.08324 0 0 0 158.90469 212.50016Z" transform="matrix(1, 0, 0, 1, 0, 0)">
</path>
<path fill="rgba(102,206,145,1)" d="M232.36429 214.45a6.44154 6.44154 0 0 0-6.5008 3.4307 55.48632 55.48632 0 0 1-23.8398 23.9809 6.38912 6.38912 0 0 0-2.8544 8.2279l.0518.119a6.43656 6.43656 0 0 0 8.866 3.152 68.74927 68.74927 0 0 0 29.3465-29.4961 6.4461 6.4461 0 0 0-4.8969-9.3942zM238.82369 261.25356h0a7.347 7.347 0 0 1-5.0878-9.0593l7.7476-27.5987a7.34693 7.34693 0 0 1 9.0592-5.08782h0a7.34689 7.34689 0 0 1 5.0878 9.05922l-7.7476 27.5987A7.347 7.347 0 0 1 238.82369 261.25356z" transform="matrix(1, 0, 0, 1, 0, 0)">
</path>
<path fill="rgba(152,247,191,1)" d="M239.38349 246.759h0a3.96842 3.96842 0 0 1-2.7481-4.8933l3.5461-12.632a3.96832 3.96832 0 0 1 4.8933-2.7481h0a3.96832 3.96832 0 0 1 2.7481 4.8933l-3.5461 12.63188A3.96838 3.96838 0 0 1 239.38349 246.759Z" transform="matrix(1, 0, 0, 1, 0, 0)">
</path>
<path fill="rgba(102,206,145,1)" d="M271.65939 256.90066h0a6.7452 6.7452 0 0 1-8.1152-5.014l-2.5688-10.87492a6.74519 6.74519 0 0 1 5.014-8.11508h0a6.74521 6.74521 0 0 1 8.1152 5.0139l2.5687 10.8749A6.74521 6.74521 0 0 1 271.65939 256.90066Z" transform="matrix(1, 0, 0, 1, 0, 0)">
</path>
<path fill="rgba(152,247,191,1)" d="M266.68819 248.40086h0a3.86108 3.86108 0 0 1-4.6453-2.87012l-.7772-3.29018a3.86118 3.86118 0 0 1 2.8701-4.6453h0a3.86113 3.86113 0 0 1 4.6453 2.8701l.7772 3.2902A3.86113 3.86113 0 0 1 266.68819 248.40086zM228.88789 221.95366l-.0615-.0696a3.45476 3.45476 0 0 0-5.5131.4418 55.083 55.083 0 0 1-12.1774 13.6034 3.47572 3.47572 0 0 0-.6472 4.7803l.0417.0564a3.46655 3.46655 0 0 0 4.9345.65778 61.56 61.56 0 0 0 5.1747-4.61728 62.67017 62.67017 0 0 0 8.5675-10.6823A3.47958 3.47958 0 0 0 228.88789 221.95366z" transform="matrix(1, 0, 0, 1, 0, 0)">
</path>
<path fill="rgba(72,169,175,1)" d="M273.55049 149.36356a5.44328 5.44328 0 0 1 4.1293-4.0885 5.527 5.527 0 0 1 2.1899-.03632 3.9219 3.9219 0 0 0 3.9137-1.45508q.1152-.15375.2325-.3054a3.76472 3.76472 0 0 0-2.0917-5.9808 13.45692 13.45692 0 0 0-14.568 20.07828 3.9669 3.9669 0 0 0 6.7212.07292l.0433-.0673a3.83541 3.83541 0 0 0 .1215-4.0875A5.46085 5.46085 0 0 1 273.55049 149.36356zM309.38379 120.81586a9.05115 9.05115 0 0 0-12.5968 11.7115 2.45472 2.45472 0 0 0 4.3583.2202l.0676-.1165a2.47416 2.47416 0 0 0 .0929-2.2668 3.999 3.999 0 0 1-.1703-2.8034 4.04385 4.04385 0 0 1 5.7253-2.4185 2.50334 2.50334 0 0 0 2.7333-.1633q.04395-.035.0883-.06932A2.45426 2.45426 0 0 0 309.38379 120.81586z" transform="matrix(1, 0, 0, 1, 0, 0)">
</path>
<path fill="rgba(152,247,191,1)" transform="matrix(0.03946911171078682, -0.9992208480834961, 0.9992208480834961, 0.03946911171078682, -201.13734436035156, 581.5949096679688)" data-type="circle" data-cx="201.942" data-cy="395.417" data-r="9.971" d="M201.942 395.417m-9.971 0a9.971 9.971 0 1 0 19.942 0a9.971 9.971 0 1 0 -19.942 0">
</path>
<path fill="rgba(59,102,150,1)" d="M207.01729 395.41674a5.07525 5.07525 0 1 1-5.0753-5.07528A5.07533 5.07533 0 0 1 207.01729 395.41674Z" transform="matrix(1, 0, 0, 1, 0, 0)">
</path>
<path fill="rgba(152,247,191,1)" transform="matrix(1, 0, 0, 1, 0, 0)" data-type="circle" data-cx="110.035" data-cy="281.024" data-r="9.971" d="M110.035 281.024m-9.971 0a9.971 9.971 0 1 0 19.942 0a9.971 9.971 0 1 0 -19.942 0">
</path>
<path fill="rgba(59,102,150,1)" d="M115.11047 281.02356a5.07524 5.07524 0 1 1-5.0752-5.0752A5.07523 5.07523 0 0 1 115.11047 281.02356Z" transform="matrix(1, 0, 0, 1, 0, 0)">
</path>
<path fill="rgba(102,206,145,1)" transform="matrix(1, 0, 0, 1, 0, 0)" data-type="circle" data-cx="400.167" data-cy="339.712" data-r="9.971" d="M400.167 339.712m-9.971 0a9.971 9.971 0 1 0 19.942 0a9.971 9.971 0 1 0 -19.942 0">
</path>
<path fill="rgba(59,102,150,1)" d="M405.24219 339.71166a5.07525 5.07525 0 1 1-5.0752-5.0752A5.07529 5.07529 0 0 1 405.24219 339.71166Z" transform="matrix(1, 0, 0, 1, 0, 0)">
</path>
<path fill="rgba(152,247,191,1)" transform="matrix(1, 0, 0, 1, 0, 0)" data-type="circle" data-cx="178.412" data-cy="388.34" data-r="9.257" d="M178.412 388.34m-9.257 0a9.257 9.257 0 1 0 18.514 0a9.257 9.257 0 1 0 -18.514 0">
</path>
<path fill="rgba(59,102,150,1)" transform="matrix(1, 0, 0, 1, 0, 0)" data-type="circle" data-cx="178.412" data-cy="388.34" data-r="4.712" d="M178.412 388.34m-4.712 0a4.712 4.712 0 1 0 9.424 0a4.712 4.712 0 1 0 -9.424 0">
</path>
<path fill="rgba(102,206,145,1)" transform="matrix(0.1886156052350998, -0.9820510149002075, 0.9820510149002075, 0.1886156052350998, -207.52902221679688, 356.81134033203125)" data-type="circle" data-cx="112.167" data-cy="303.996" data-r="9.257" d="M112.167 303.996m-9.257 0a9.257 9.257 0 1 0 18.514 0a9.257 9.257 0 1 0 -18.514 0">
</path>
<path fill="rgba(59,102,150,1)" d="M116.87847 303.99566a4.7115 4.7115 0 1 1-4.71148-4.7115A4.71158 4.71158 0 0 1 116.87847 303.99566Z" transform="matrix(1, 0, 0, 1, 0, 0)">
</path>
<path fill="rgba(152,247,191,1)" transform="matrix(1, 0, 0, 1, 0, 0)" data-type="circle" data-cx="102.91" data-cy="259.8" data-r="9.257" d="M102.91 259.8m-9.257 0a9.257 9.257 0 1 0 18.514 0a9.257 9.257 0 1 0 -18.514 0">
</path>
<path fill="rgba(59,102,150,1)" transform="matrix(1, 0, 0, 1, 0, 0)" data-type="circle" data-cx="102.91" data-cy="259.8" data-r="4.712" d="M102.91 259.8m-4.712 0a4.712 4.712 0 1 0 9.424 0a4.712 4.712 0 1 0 -9.424 0">
</path>
<path fill="rgba(152,247,191,1)" transform="matrix(0.16063915193080902, -0.9870132207870483, 0.9870132207870483, 0.16063915193080902, -47.22019577026367, 294.9732666015625)" data-type="circle" data-cx="149.821" data-cy="175.25" data-r="9.257" d="M149.821 175.25m-9.257 0a9.257 9.257 0 1 0 18.514 0a9.257 9.257 0 1 0 -18.514 0">
</path>
<path fill="rgba(59,102,150,1)" transform="matrix(1, 0, 0, 1, 0, 0)" data-type="circle" data-cx="149.821" data-cy="175.25" data-r="4.712" d="M149.821 175.25m-4.712 0a4.712 4.712 0 1 0 9.424 0a4.712 4.712 0 1 0 -9.424 0">
</path>
<path fill="rgba(102,206,145,1)" transform="matrix(1, 0, 0, 1, 0, 0)" data-type="circle" data-cx="250.159" data-cy="388.34" data-r="9.257" d="M250.159 388.34m-9.257 0a9.257 9.257 0 1 0 18.514 0a9.257 9.257 0 1 0 -18.514 0">
</path>
<path fill="rgba(59,102,150,1)" d="M254.871 388.34016a4.71155 4.71155 0 1 1-4.7115-4.7115A4.71155 4.71155 0 0 1 254.871 388.34016Z" transform="matrix(1, 0, 0, 1, 0, 0)">
</path>
<path fill="rgba(102,206,145,1)" transform="matrix(0.9986130595207214, -0.05264968052506447, 0.05264968052506447, 0.9986130595207214, -17.009180068969727, 22.82549285888672)" data-type="circle" data-cx="424.731" data-cy="334.252" data-r="9.257" d="M424.731 334.252m-9.257 0a9.257 9.257 0 1 0 18.514 0a9.257 9.257 0 1 0 -18.514 0">
</path>
<path fill="rgba(59,102,150,1)" transform="matrix(0.38653406500816345, -0.9222747683525085, 0.9222747683525085, 0.38653406500816345, -47.714874267578125, 596.770263671875)" data-type="circle" data-cx="424.731" data-cy="334.252" data-r="4.712" d="M424.731 334.252m-4.712 0a4.712 4.712 0 1 0 9.424 0a4.712 4.712 0 1 0 -9.424 0">
</path>
<path fill="rgba(152,247,191,1)" transform="matrix(0.2288435399532318, -0.9734635353088379, 0.9734635353088379, 0.2288435399532318, -50.44988250732422, 595.2109985351562)" data-type="circle" data-cx="350.455" data-cy="329.448" data-r="9.257" d="M350.455 329.448m-9.257 0a9.257 9.257 0 1 0 18.514 0a9.257 9.257 0 1 0 -18.514 0">
</path>
<path fill="rgba(59,102,150,1)" d="M355.16609 329.44816a4.7115 4.7115 0 1 1-4.7115-4.7116A4.71155 4.71155 0 0 1 355.16609 329.44816Z" transform="matrix(1, 0, 0, 1, 0, 0)">
</path>
<path fill="rgba(152,247,191,1)" transform="matrix(1, 0, 0, 1, 0, 0)" data-type="circle" data-cx="396.342" data-cy="192.048" data-r="9.257" d="M396.342 192.048m-9.257 0a9.257 9.257 0 1 0 18.514 0a9.257 9.257 0 1 0 -18.514 0">
</path>
<path fill="rgba(59,102,150,1)" transform="matrix(1, 0, 0, 1, 0, 0)" data-type="circle" data-cx="396.342" data-cy="192.048" data-r="4.712" d="M396.342 192.048m-4.712 0a4.712 4.712 0 1 0 9.424 0a4.712 4.712 0 1 0 -9.424 0">
</path>
<path fill="rgba(102,206,145,1)" transform="matrix(0.19284741580486298, -0.981228768825531, 0.981228768825531, 0.19284741580486298, -139.8865509033203, 610.6265258789062)" data-type="circle" data-cx="301.216" data-cy="390.341" data-r="9.257" d="M301.216 390.341m-9.257 0a9.257 9.257 0 1 0 18.514 0a9.257 9.257 0 1 0 -18.514 0">
</path>
<path fill="rgba(59,102,150,1)" d="M305.92719 390.34146a4.7115 4.7115 0 1 1-4.7115-4.7115A4.71157 4.71157 0 0 1 305.92719 390.34146Z" transform="matrix(1, 0, 0, 1, 0, 0)">
</path>
<path fill="rgba(152,247,191,1)" transform="matrix(0.031201466917991638, -0.9995132088661194, 0.9995132088661194, 0.031201466917991638, 165.23483276367188, 595.8193969726562)" data-type="circle" data-cx="389.972" data-cy="212.673" data-r="9.257" d="M389.972 212.673m-9.257 0a9.257 9.257 0 1 0 18.514 0a9.257 9.257 0 1 0 -18.514 0">
</path>
<path fill="rgba(59,102,150,1)" transform="matrix(1, 0, 0, 1, 0, 0)" data-type="circle" data-cx="389.972" data-cy="212.673" data-r="4.712" d="M389.972 212.673m-4.712 0a4.712 4.712 0 1 0 9.424 0a4.712 4.712 0 1 0 -9.424 0">
</path>
<path fill="rgba(102,206,145,1)" transform="matrix(0.3919036090373993, -0.920006513595581, 0.920006513595581, 0.3919036090373993, -225.44418334960938, 449.7530822753906)" data-type="circle" data-cx="227.499" data-cy="395.417" data-r="9.971" d="M227.499 395.417m-9.971 0a9.971 9.971 0 1 0 19.942 0a9.971 9.971 0 1 0 -19.942 0">
</path>
<path fill="rgba(59,102,150,1)" d="M232.57479 395.41674a5.07525 5.07525 0 1 1-5.0753-5.07528A5.07533 5.07533 0 0 1 232.57479 395.41674Z" transform="matrix(1, 0, 0, 1, 0, 0)">
</path>
<path fill="rgba(152,247,191,1)" transform="matrix(1, 0, 0, 1, 0, 0)" data-type="circle" data-cx="374.409" data-cy="339.712" data-r="9.971" d="M374.409 339.712m-9.971 0a9.971 9.971 0 1 0 19.942 0a9.971 9.971 0 1 0 -19.942 0">
</path>
<path fill="rgba(59,102,150,1)" d="M379.48429 339.71166a5.07525 5.07525 0 1 1-5.0752-5.0752A5.07523 5.07523 0 0 1 379.48429 339.71166Z" transform="matrix(1, 0, 0, 1, 0, 0)">
</path>
<path fill="rgba(152,247,191,1)" transform="matrix(0.9249910116195679, -0.37998881936073303, 0.37998881936073303, 0.9249910116195679, -116.84951782226562, 142.3805694580078)" data-type="circle" data-cx="302.219" data-cy="367.165" data-r="9.971" d="M302.219 367.165m-9.971 0a9.971 9.971 0 1 0 19.942 0a9.971 9.971 0 1 0 -19.942 0">
</path>
<path fill="rgba(59,102,150,1)" d="M307.29429 367.16506a5.0753 5.0753 0 1 1-5.0753-5.0752A5.07531 5.07531 0 0 1 307.29429 367.16506Z" transform="matrix(1, 0, 0, 1, 0, 0)">
</path>
<path fill="rgba(102,206,145,1)" transform="matrix(0.23072901368141174, -0.973018229007721, 0.973018229007721, 0.23072901368141174, 66.06459045410156, 531.7622680664062)" data-type="circle" data-cx="369.334" data-cy="224.1" data-r="9.971" d="M369.334 224.1m-9.971 0a9.971 9.971 0 1 0 19.942 0a9.971 9.971 0 1 0 -19.942 0">
</path>
<path fill="rgba(59,102,150,1)" d="M374.40909 224.09966a5.07525 5.07525 0 1 1-5.0753-5.0752A5.07531 5.07531 0 0 1 374.40909 224.09966Z" transform="matrix(1, 0, 0, 1, 0, 0)">
</path>
<path fill="rgba(152,247,191,1)" transform="matrix(0.33344483375549316, -0.9427698254585266, 0.9427698254585266, 0.33344483375549316, -52.37705612182617, 235.96237182617188)" data-type="circle" data-cx="140.683" data-cy="155.022" data-r="9.971" d="M140.683 155.022m-9.971 0a9.971 9.971 0 1 0 19.942 0a9.971 9.971 0 1 0 -19.942 0">
</path>
<path fill="rgba(59,102,150,1)" d="M145.75869 155.022a5.07526 5.07526 0 1 1-5.0753-5.07522A5.07531 5.07531 0 0 1 145.75869 155.022Z" transform="matrix(1, 0, 0, 1, 0, 0)">
</path>
<path fill="rgba(59,102,150,1)" transform="matrix(1, 0, 0, 1, 0, 0)" data-type="circle" data-cx="294.454" data-cy="255.088" data-r="6.75" d="M294.454 255.088m-6.75 0a6.75 6.75 0 1 0 13.5 0a6.75 6.75 0 1 0 -13.5 0">
</path>
<path fill="rgba(59,102,150,1)" d="M351.12889 285.21836a4.6202 4.6202 0 1 1-4.6202-4.6203A4.62022 4.62022 0 0 1 351.12889 285.21836zM145.30369 213.07656a4.62026 4.62026 0 1 1-4.6203-4.6203A4.62029 4.62029 0 0 1 145.30369 213.07656z" transform="matrix(1, 0, 0, 1, 0, 0)">
</path>
<path fill="rgba(59,102,150,1)" transform="matrix(1, 0, 0, 1, 0, 0)" data-type="circle" data-cx="191.415" data-cy="377.136" data-r="4.62" d="M191.415 377.136m-4.62 0a4.62 4.62 0 1 0 9.24 0a4.62 4.62 0 1 0 -9.24 0">
</path>
<path fill="rgba(59,102,150,1)" transform="matrix(1, 0, 0, 1, 0, 0)" data-type="circle" data-cx="178.557" data-cy="257.015" data-r="4.62" d="M178.557 257.015m-4.62 0a4.62 4.62 0 1 0 9.24 0a4.62 4.62 0 1 0 -9.24 0">
</path>
<path fill="rgba(59,102,150,1)" transform="matrix(1, 0, 0, 1, 0, 0)" data-type="circle" data-cx="240.903" data-cy="207.117" data-r="4.62" d="M240.903 207.117m-4.62 0a4.62 4.62 0 1 0 9.24 0a4.62 4.62 0 1 0 -9.24 0">
</path>
<path fill="rgba(59,102,150,1)" transform="matrix(0.3859221041202545, -0.9225313663482666, 0.9225313663482666, 0.3859221041202545, -48.512054443359375, 411.4601745605469)" data-type="circle" data-cx="284.813" data-cy="242.171" data-r="4.62" d="M284.813 242.171m-4.62 0a4.62 4.62 0 1 0 9.24 0a4.62 4.62 0 1 0 -9.24 0">
</path>
<path fill="rgba(59,102,150,1)" d="M259.49119 276.71546a4.62025 4.62025 0 1 1-4.6202-4.6202A4.62022 4.62022 0 0 1 259.49119 276.71546Z" transform="matrix(1, 0, 0, 1, 0, 0)">
</path>
<path fill="rgba(59,102,150,1)" transform="matrix(0.1586061269044876, -0.9873422980308533, 0.9873422980308533, 0.1586061269044876, 6.852567195892334, 653.8931884765625)" data-type="circle" data-cx="387.085" data-cy="322.926" data-r="4.62" d="M387.085 322.926m-4.62 0a4.62 4.62 0 1 0 9.24 0a4.62 4.62 0 1 0 -9.24 0">
</path>
</g>
<path text="The" fill="#48a9af" space="preserve" text-anchor="middle" offset="0.5" font-scale="contain" font-size="48" font-family="Chango" transform="matrix(1.2728017568588257, 0, 0, 1.2728017568588257, 256.7318420410156, 373.5412292480469)" data-fl-textpath="" font-weight="400" font-style="normal" d="M-28.274000000000004-2.93L-28.274000000000004-2.93Q-28.324000000000005-1.87 -29.184000000000005-0.98Q-30.044000000000004-0.1 -31.484000000000005 0L-31.484000000000005 0Q-34.224000000000004 0.19 -38.06400000000001 0.19Q-41.90400000000001 0.19 -45.12400000000001 0L-45.12400000000001 0Q-46.56400000000001-0.1 -47.42400000000001-0.98Q-48.284000000000006-1.87 -48.334-2.93L-48.334-2.93Q-48.48400000000001-10.22 -48.48400000000001-15.38Q-48.48400000000001-20.54 -48.434000000000005-22.94L-48.434000000000005-22.94Q-48.434000000000005-24.77 -50.06400000000001-24.77L-50.06400000000001-24.77L-54.38400000000001-24.77Q-55.394000000000005-24.77 -56.014-25.25Q-56.644000000000005-25.73 -56.714000000000006-26.93Q-56.784000000000006-28.13 -56.784000000000006-29.42Q-56.784000000000006-30.72 -56.714000000000006-31.66Q-56.644000000000005-32.59 -55.944-33.1Q-55.24400000000001-33.6 -54.434000000000005-33.6L-54.434000000000005-33.6Q-48.194-33.7 -37.534000000000006-33.7Q-26.884000000000007-33.7 -22.274000000000008-33.6L-22.274000000000008-33.6Q-21.454000000000008-33.55 -20.764000000000003-33.07Q-20.064000000000007-32.59 -19.994000000000007-31.66Q-19.924000000000007-30.72 -19.924000000000007-29.47Q-19.924000000000007-28.22 -19.964000000000006-27.07L-19.964000000000006-27.07Q-20.114000000000004-24.91 -22.324000000000005-24.91L-22.324000000000005-24.91L-26.644000000000005-24.91Q-28.274000000000004-24.91 -28.274000000000004-23.23L-28.274000000000004-23.23Q-28.124000000000006-17.18 -28.124000000000006-12.29Q-28.124000000000006-7.39 -28.274000000000004-2.93ZM-15.020000000000001-2.26L-15.020000000000001-2.26L-15.120000000000001-17.95Q-15.120000000000001-25.15 -14.980000000000002-31.97L-14.980000000000002-31.97Q-14.930000000000001-33.55 -14.380000000000003-34.32Q-13.820000000000002-35.09 -12.240000000000002-35.09L-12.240000000000002-35.09L-3.0200000000000014-35.09Q-1.4400000000000013-35.09 -0.8900000000000006-34.34Q-0.3400000000000034-33.6 -0.22000000000000242-31.66Q-0.10000000000000142-29.71 -3.552713678800501e-15-21.26L-3.552713678800501e-15-21.26Q 3.7399999999999984-25.06  8.999999999999996-25.06Q 14.259999999999998-25.06  17.28-22.46Q 20.299999999999997-19.87  20.379999999999995-15.31Q 20.449999999999996-10.75  20.449999999999996-7.15Q 20.449999999999996-3.55  20.4-2.3Q 20.35-1.06  19.75-0.5Q 19.15 0.05  17.419999999999995 0.05L 17.419999999999995 0.05L 8.209999999999997 0.14Q 6.669999999999998 0.14  6.069999999999997-0.41Q 5.469999999999999-0.96  5.469999999999999-2.06L 5.469999999999999-2.06L 5.52-13.78Q 5.52-15.22  4.799999999999997-15.94Q 4.079999999999998-16.66  2.9999999999999964-16.66Q 1.9199999999999982-16.66  1.0599999999999987-15.91Q 0.18999999999999773-15.17  0.13999999999999702-13.82L 0.13999999999999702-13.82L-0.14000000000000057-2.26Q-0.19000000000000128-1.34 -1.0100000000000016-0.72Q-1.8200000000000003-0.1 -3.0000000000000018 0Q-4.1800000000000015 0.1 -5.620000000000003 0.1L-5.620000000000003 0.1L-12.340000000000002 0Q-13.250000000000002 0 -14.140000000000002-0.65Q-15.020000000000001-1.3 -15.020000000000001-2.26ZM 32.348-22.97Q 34.558-24.05  36.888-24.53Q 39.218-25.01  42.647999999999996-25.01Q 46.078-25.01  49.198-24.17Q 52.318-23.33  53.858000000000004-21.89L 53.858000000000004-21.89Q 56.548-19.25  56.548-15.7L 56.548-15.7Q 56.548-10.13  47.138-10.13L 47.138-10.13Q 43.828-10.13  40.268-10.75L 40.268-10.75Q 40.418-7.58  41.448-6.29Q 42.477999999999994-4.99  45.117999999999995-4.99Q 47.757999999999996-4.99  49.488-5.57Q 51.218-6.14  52.268-6.74Q 53.328-7.34  54.068-7.34Q 54.818-7.34  55.348-6.67L 55.348-6.67Q 56.158-5.81  56.158-4.3Q 56.158-2.78  55.558-2.23Q 54.958-1.68  53.668-1.15L 53.668-1.15Q 49.108000000000004 0.77  40.708 0.77L 40.708 0.77Q 33.748 0.77  29.258-2.57Q 24.768-5.9  24.768-11.57L 24.768-11.57Q 24.768-14.3  25.778-16.58Q 26.788-18.86  28.468-20.38Q 30.148-21.89  32.348-22.97ZM 43.488-19.54L 43.488-19.54Q 40.558-19.54  40.318-14.78L 40.318-14.78Q 42.628-14.59  42.718-14.59L 42.718-14.59Q 45.888-14.59  45.888-16.7L 45.888-16.7Q 45.888-19.54  43.488-19.54Z">
</path>
<path text="Social" fill="#48a9af" space="preserve" text-anchor="middle" offset="0.5" font-scale="contain" font-size="48" font-family="Chango" transform="matrix(1.2728017568588257, 0, 0, 1.2728017568588257, 255.2694549560547, 430.7062072753906)" font-weight="400" font-style="normal" data-fl-textpath="" d="M-78.19200000000001 0.96Q-82.32200000000002 0.96 -85.89200000000001 0.05Q-89.47200000000001-0.86 -90.93200000000002-1.78Q-92.40200000000002-2.69 -92.88200000000002-3.07L-92.88200000000002-3.07Q-94.13200000000002-4.08 -94.13200000000002-5.86L-94.13200000000002-5.86Q-94.13200000000002-7.25 -93.79200000000002-8.5L-93.79200000000002-8.5Q-93.17200000000001-10.85 -91.53200000000001-10.85L-91.53200000000001-10.85Q-91.01200000000001-10.8 -88.15200000000002-9.74Q-85.29200000000002-8.69 -83.662-8.69L-83.662-8.69Q-81.21200000000002-8.69 -81.21200000000002-10.61L-81.21200000000002-10.61Q-81.21200000000002-11.76 -82.412-12.74Q-83.61200000000001-13.73 -85.32200000000002-14.64Q-87.02200000000002-15.55 -88.75200000000001-16.73Q-90.48200000000001-17.9 -91.68200000000002-19.99Q-92.88200000000002-22.08 -92.88200000000002-24.86L-92.88200000000002-24.86Q-92.88200000000002-29.47 -88.37200000000001-32.09Q-83.85200000000002-34.7 -76.70200000000001-34.7Q-69.55200000000002-34.7 -65.352-33.24Q-61.152000000000015-31.78 -61.152000000000015-29.18L-61.152000000000015-29.18Q-61.152000000000015-27.31 -62.012000000000015-25.9Q-62.88200000000001-24.48 -63.84200000000001-24.48L-63.84200000000001-24.48Q-64.17200000000001-24.48 -66.07200000000002-25.22Q-67.97200000000001-25.97 -69.50200000000001-25.97L-69.50200000000001-25.97Q-72.53200000000001-25.97 -72.53200000000001-23.62L-72.53200000000001-23.62Q-72.53200000000001-22.46 -71.09200000000001-21.5Q-69.65200000000002-20.54 -67.61200000000001-19.66Q-65.57200000000002-18.77 -63.50200000000001-17.66Q-61.442000000000014-16.56 -60.00200000000001-14.64Q-58.56200000000001-12.72 -58.56200000000001-9.98Q-58.56200000000001-7.25 -60.31200000000001-4.99Q-62.06200000000001-2.74 -64.94200000000001-1.49L-64.94200000000001-1.49Q-70.65200000000002 0.96 -78.19200000000001 0.96L-78.19200000000001 0.96ZM-40.13000000000001-12Q-40.13000000000001-6.62 -37.300000000000004-6.62Q-34.46000000000001-6.62 -34.46000000000001-12L-34.46000000000001-12Q-34.46000000000001-14.45 -35.040000000000006-15.77Q-35.620000000000005-17.09 -37.300000000000004-17.09Q-38.980000000000004-17.09 -39.550000000000004-15.77Q-40.13000000000001-14.45 -40.13000000000001-12L-40.13000000000001-12ZM-19.390000000000008-12Q-19.390000000000008 1.06 -37.300000000000004 1.06Q-55.2 1.06 -55.2-12L-55.2-12Q-55.2-18.19 -50.64-21.6Q-46.080000000000005-25.01 -37.300000000000004-25.01Q-28.510000000000005-25.01 -23.950000000000003-21.6Q-19.390000000000008-18.19 -19.390000000000008-12L-19.390000000000008-12ZM 5.567999999999991-17.52L 5.567999999999991-17.52Q 3.3079999999999927-17.52  2.2079999999999913-16.03Q 1.1079999999999899-14.54  1.1079999999999899-12.34Q 1.1079999999999899-10.13  2.3979999999999926-8.54Q 3.6979999999999933-6.96  6.577999999999992-6.96L 6.577999999999992-6.96Q 7.487999999999992-6.96  9.26799999999999-7.44Q 11.037999999999993-7.92  11.757999999999992-7.92L 11.757999999999992-7.92Q 13.437999999999992-7.92  13.537999999999993-4.7L 13.537999999999993-4.7Q 13.537999999999993-3.31  13.367999999999991-2.11Q 13.197999999999993-0.91  11.56799999999999-0.38L 11.56799999999999-0.38Q 6.76799999999999 1.1  3.097999999999992 1.1Q-0.5720000000000098 1.1 -2.902000000000008 0.84Q-5.232000000000008 0.58 -7.612000000000009-0.24Q-9.982000000000008-1.06 -11.542000000000009-2.4Q-13.102000000000007-3.74 -14.09200000000001-6.02Q-15.072000000000008-8.3 -15.072000000000008-11.78Q-15.072000000000008-15.26 -13.562000000000008-18Q-12.052000000000008-20.74 -9.412000000000008-22.18L-9.412000000000008-22.18Q-4.412000000000008-24.86  3.0679999999999907-24.86L 3.0679999999999907-24.86Q 7.10799999999999-24.86  11.277999999999992-23.57L 11.277999999999992-23.57Q 13.057999999999993-22.99  13.057999999999993-19.7Q 13.057999999999993-16.42  11.377999999999993-16.42L 11.377999999999993-16.42Q 10.65799999999999-16.42  8.757999999999992-16.97Q 6.8679999999999914-17.52  5.567999999999991-17.52ZM 20.92599999999999-24.29L 20.92599999999999-24.29L 30.28599999999999-24.29Q 31.91599999999999-24.29  32.47599999999999-23.57Q 33.02599999999999-22.85  33.19599999999999-20.38Q 33.35599999999999-17.9  33.35599999999999-11.35Q 33.35599999999999-4.8  33.07599999999999-2.11L 33.07599999999999-2.11Q 32.92599999999999-1.3  32.25599999999999-0.67Q 31.58599999999999-0.05  29.87599999999999 0.07Q 28.175999999999988 0.19  25.82599999999999 0.19Q 23.475999999999992 0.19  21.55599999999999 0.07Q 19.63599999999999-0.05  18.95599999999999-0.67Q 18.28599999999999-1.3  18.19599999999999-2.11L 18.19599999999999-2.11Q 17.85599999999999-5.23  17.85599999999999-11.69Q 17.85599999999999-18.14  18.04599999999999-20.5Q 18.23599999999999-22.85  18.76599999999999-23.57Q 19.295999999999992-24.29  20.92599999999999-24.29ZM 26.115999999999993-35.62L 26.115999999999993-35.62Q 29.27599999999999-35.62  30.88599999999999-34.34Q 32.49599999999999-33.07  32.49599999999999-30.86L 32.49599999999999-30.86Q 32.49599999999999-25.68  25.58599999999999-25.68L 25.58599999999999-25.68Q 22.795999999999992-25.68  20.83599999999999-26.88Q 18.86599999999999-28.08  18.86599999999999-30.48L 18.86599999999999-30.48Q 18.86599999999999-35.62  26.115999999999993-35.62ZM 56.019999999999996-25.2L 56.019999999999996-25.2Q 71.66-25.2  71.81-15.02L 71.81-15.02Q 71.89999999999999-10.7  71.89999999999999-7.1Q 71.89999999999999-3.5  71.85999999999999-2.26Q 71.81-1.01  71.21-0.46Q 70.60999999999999 0.1  68.88 0.1L 68.88 0.1L 58.699999999999996 0.1Q 57.169999999999995 0.1  56.589999999999996-0.46Q 56.019999999999996-1.01  55.97-2.11L 55.97-2.11Q 55.97-2.16  55.94-2.28Q 55.919999999999995-2.4  55.919999999999995-2.5L 55.919999999999995-2.5Q 52.75 0.77  47.279999999999994 0.77L 47.279999999999994 0.77Q 43.489999999999995 0.77  40.81999999999999-1.13Q 38.16-3.02  38.16-6.36Q 38.16-9.7  40.059999999999995-11.69Q 41.949999999999996-13.68  44.56999999999999-14.4Q 47.17999999999999-15.12  50.17999999999999-15.12Q 53.17999999999999-15.12  56.059999999999995-14.54L 56.059999999999995-14.54L 56.059999999999995-14.74Q 56.059999999999995-17.14  55.129999999999995-18.19Q 54.19-19.25  52.099999999999994-19.25Q 50.019999999999996-19.25  48.62-18.89Q 47.23-18.53  46.50999999999999-18.14L 46.50999999999999-18.14Q 44.53999999999999-16.99  43.779999999999994-16.99Q 43.00999999999999-16.99  42.41-17.71Q 41.809999999999995-18.43  41.809999999999995-19.94Q 41.809999999999995-21.46  42.35999999999999-22.03Q 42.91-22.61  44.10999999999999-23.18L 44.10999999999999-23.18Q 48.28999999999999-25.2  56.019999999999996-25.2ZM 53.75999999999999-5.57L 53.75999999999999-5.57Q 55.86999999999999-5.57  55.919999999999995-6.38L 55.919999999999995-6.38Q 56.019999999999996-7.97  56.019999999999996-10.56L 56.019999999999996-10.56Q 56.019999999999996-11.57  54.47999999999999-11.57Q 52.94-11.57  51.98-10.82Q 51.019999999999996-10.08  51.019999999999996-8.64Q 51.019999999999996-7.2  51.81999999999999-6.38Q 52.61-5.57  53.75999999999999-5.57ZM 80.78399999999999-35.09L 80.78399999999999-35.09L 90.00399999999999-35.09Q 91.58399999999999-35.09  92.11399999999999-34.34Q 92.64399999999999-33.6  92.78399999999999-31.97L 92.78399999999999-31.97Q 93.07399999999998-26.21  93.07399999999998-16.06Q 93.07399999999998-5.9  92.684-2.06L 92.684-2.06Q 92.594-1.3  91.92399999999999-0.67Q 91.244-0.05  89.544 0.07Q 87.844 0.19  85.53399999999999 0.19Q 83.234 0.19  81.404 0.1L 81.404 0.1Q 78.28399999999999-0.14  78.14399999999999-2.06L 78.14399999999999-2.06Q 77.66399999999999-6.24  77.66399999999999-16.87Q 77.66399999999999-27.5  78.044-31.97L 78.044-31.97Q 78.19399999999999-33.6  78.69399999999999-34.34Q 79.204-35.09  80.78399999999999-35.09Z">
</path>
<path transform="matrix(0.3484519124031067, 0, 0, 0.3484519124031067, 325.07110595703125, 80.2500991821289)" data-type="circle" data-cx="50" data-cy="50" data-r="50" d="M50 50m-50 0a50 50 0 1 0 100 0a50 50 0 1 0 -100 0" fill="#a0fffb">
</path>
<path transform="matrix(0.21944265067577362, 0, 0, 0.21944265067577362, 355.640625, 119.93529510498047)" data-type="circle" data-cx="50" data-cy="50" data-r="50" d="M50 50m-50 0a50 50 0 1 0 100 0a50 50 0 1 0 -100 0" fill="#a0fffb">
</path>
</svg>
